<?xml version="1.0" encoding="utf-8"?>
<!-- Generator: Adobe Illustrator 21.0.0, SVG Export Plug-In . SVG Version: 6.00 Build 0)  -->
<svg version="1.1" id="Layer_1" xmlns="http://www.w3.org/2000/svg" xmlns:xlink="http://www.w3.org/1999/xlink" x="0px" y="0px"
	 viewBox="0 0 610.3 508" style="enable-background:new 0 0 610.3 508;" xml:space="preserve">
<style type="text/css">
	.st0{opacity:9.000000e-02;fill:#FFFFFF;enable-background:new    ;}
	.st1{fill:#FFFFFF;}
	.st2{fill:#0C0C0C;}
	.st3{fill:#9A1551;}
	.st4{fill:#330936;stroke:#330936;stroke-miterlimit:10;}
</style>
<title>Asset 1</title>
<path class="st0" d="M610.3,0v172.1c-32.2,7.9-76.7,20.8-137.2,41.6c-166,57-282,162.3-282,162.3l-26-20.5c0,0,2.7-74.9-49.3-209.5
	C93.7,88.8,46.7,38.7,0,0H610.3z"/>
<path class="st0" d="M111.8,0h498.5v129c-105.1,16.5-208.7,62.3-278.5,112.4C247,302.2,191.1,376,191.1,376l-26-20.5
	c0,0,26.7-106.2-20-294.9C139.2,36.7,127.4,16.7,111.8,0z"/>
<path class="st1" d="M176.9,361.9c2.3-0.4,5.2,0.2,7.5,0.3c3.5,0.2,7,0.4,10.5,0.7c6.8,0.6,13.6,1.6,20.4,0.6
	c17.2-2.6,24.4-16.1,28.6-31.6c3.8-13.9,5.2-28.2,6.7-42.5c0.9-8.8,1.3-21.3,7.5-28.3c1.3-1.5,2.4-2.2,3.6-2.3
	c0.9,19.2-1.4,38.3-3.4,57.4c-2.1,19.9-5.6,37.3-8.4,56.6c-7.6,5-16.5,7.9-25.6,8.5c-5.9,0.4-11.7-0.6-17.6-1.5
	c-4.2-0.7-11.1-1.2-13.9-5.1c-0.1-0.1-0.2-0.2-0.2-0.3c-3.9-7.5-11.2-2.5-16.7-6.5C173.3,366,173.5,362.5,176.9,361.9z"/>
<path class="st2" d="M261.2,408.1c7.3,2.6,14.1,1.6,21.2-1.4c11.7-5,26.6-19.6,40.1-17.5c7.4,1.2,23,8.8,26.1,15.9
	c4,9.1,0.2,23.4,0,33c-0.4,21.7,0.5,43.4,0.5,65.1c0,1.6,0,3.2,0,4.8h-42.6c-1-10.6-2.2-21.3-3.4-31.9c-1-8.9-2.5-17.8-2.7-26.8
	c-0.1-6,1.5-15-1.8-20.3c-5.9-9.5-7.5,9.1-7.8,12.7c-1.3,13.5-2.7,27.1-3.5,40.6c-0.5,8.6-0.8,17.1-1,25.7h-41.9
	c-0.3-37.3,1-89,1.6-93.9C247.1,405.2,257.7,406.9,261.2,408.1z"/>
<path class="st2" d="M274.6,196.7c4.1-6.2,10.5-10.5,17.8-11.8c7-2.2,17.1-2.8,23.5,0c6.7,2.9,12,10.2,14.9,16.7
	c7.1,16.3,10.1,34.9,13.1,52.3c0.3,1.9,0.7,3.9,1,5.8c-1.4-0.5-2.8-0.6-4.3-0.4c0.3-0.4,0.5-0.9,0.8-1.3l-16.1-0.2
	c-0.9,1.5-2,2.9-3.1,4.2c-1.6,0.3-3,1-4.6,0.9c-3.1-0.2-4.7-2.9-5.7-5.5c-1.5-3.8-2-7.8-3.4-11.6c-2.3-6-6.8-11.3-11.3-15.9
	c-4.8-4.9-10.1-9.2-13.2-15.2c-3.8,1.4-7.8,5.1-11.7,7.2C271.8,213.5,269.2,204.8,274.6,196.7z"/>
<path class="st3" d="M258.3,316.2c2-19.4,4.4-38.8,3.3-58.2l13.5-0.1c12.5,19.7,37.9,19.6,50.2,0l16.1,0.2
	c-4.2,6.1-5.9,13.6-4.7,20.9c2.6,18.2,3.1,36.5,4,54.9c0.4,8.9,6.8,58.9,6.6,69c-3.6-1.3-7.2-0.7-10.8-0.2
	c-15.3,2-90.7,11.8-90.7,11.5C247.6,375,254.9,349,258.3,316.2z"/>
<path class="st1" d="M309.8,270.9c-12.1,4.4-26.2,0.1-34.6-13c3.7-0.2,7.3-0.3,11-0.5c2.9-0.1,6-0.2,6.5-4c0.5-3.8,2.7-9.5-1.7-9.8
	c-14.4-0.9-14.6-12.8-18.2-22.2c-1.1-2.9,11.9-7.6,14-7.7c4.3-0.2,8.2,1.6,11.5,4.3c3.1,2.6,5.8,5.7,8,9.1c2.5,3.8,5.9,7.1,8.2,11
	c0.9,1.8,1.5,3.7,1.6,5.7c0.4,2.7-2.2,8.3-0.7,10.6c1,1.5,8.5,5.8,9.9,3.5C321.8,263.8,316.3,268.5,309.8,270.9z"/>
<path class="st1" d="M332.8,410.2c0.4-5.4,0.9-10.9,1.1-16.2c0.5-16.8,0.3-33.7-0.6-50.5c-1.3-22.6-11.8-53.6-2.4-75.1
	c3.3-7.5,10-12.1,17.5-6.9c15.7,11,14.4,35.6,14.2,52.3c-0.3,27.1-4,54-7.5,80.8c-1.8,13.4-2.8,26.9-4,40.3
	c-0.6,6-1.2,21.8-11.6,15.3c-3.1-2-5.3-5.1-6.2-8.7C331.3,431.3,332,420.7,332.8,410.2z"/>
<path class="st4" d="M193.4,372.6l-26.6-19.5c-0.9-0.7-2.1-0.5-2.8,0.4l-1.9,2.6c-0.7,0.9-0.5,2.1,0.4,2.8l26.6,19.5
	c0.9,0.7,2.1,0.5,2.8-0.4l1.9-2.6C194.5,374.5,194.3,373.3,193.4,372.6z"/>
</svg>
