<svg xmlns="http://www.w3.org/2000/svg" width="551.41225" height="272.26535" viewBox="0 0 551.41225 272.26535"><title>signature_orange</title><path d="M178.495,103.233c-3.18347-1.862-7.89191-1.46625-10.43958,1.347-10.38226,11.46466-24.45581,15.70795-39.12091,11.73193-6.80255-1.84436-13.61511-5.05878-18.65875-10.0813a48.44422,48.44422,0,0,1-7.04065-8.98261c-2.19556-3.58093-4.49011-7.01294-5.58337-11.09473-1.10284-4.11761-7.68768-3.36938-7.53485,1.01971.176,5.05762.09,10.03192,1.87006,14.81714a43.96178,43.96178,0,0,0,7.77289,13.22375,54.61417,54.61417,0,0,0,24.30286,16.74414,53.61751,53.61751,0,0,0,40.207-2.4989c-2.07251,24.80481-5.68445,49.56769-9.81128,74.09027-3.82721,22.74225-7.61542,45.60919-12.08673,68.23486-3.82324,19.34668-7.87646,41.73859-19.92743,57.9444-2.50372,3.36694-5.79205,6.90155-9.77625,8.48755a8.13991,8.13991,0,0,1-6.87268.01758c-7.47729-3.29852-9.75879-14.78314-9.88275-22.37921-.3941-24.15051,16.69379-46.14038,39.23016-53.58319,9.77228-3.22736,5.81885-17.48376-4.241-15.38324-25.36371,5.296-45.40216,30.29443-50.3277,54.93176-2.55939,12.80194-1.90149,26.96887,4.606,38.56531,5.15637,9.18866,14.79034,16.181,25.69171,15.23279,25.22009-2.1936,36.13886-33.72559,41.794-54.2561,6.38-23.16211,8.93549-47.10254,13.12592-70.69977,6.9361-39.05865,10.5592-78.58081,16.66235-117.70044C183.0531,109.12177,182.05469,105.315,178.495,103.233Z" transform="translate(-79.18185 -83.43888)" style="fill:#fff"/><path d="M205.90991,245.78577c-3.681,7.598-5.03583,16.64868-10.18469,23.33673a17.00678,17.00678,0,0,1-5.804,5.09015,4.9617,4.9617,0,0,1-2.06445.85168,11.9748,11.9748,0,0,1-1.2594.317c-.1521-.01263-1.04089.05469-1.19781.033a6.79673,6.79673,0,0,1-2.61505-1.26086c-1.26935-1.15894-1.94434-2.4884-2.562-4.89856-2.10541-8.21564-.86-16.41376.074-24.67279.41144-3.63824-4.58209-4.12769-6.27466-1.69946-6.07959,8.72174-10.25995,21.11829-6.86884,31.62689,2.42017,7.49969,8.12946,13.45178,16.06116,14.79816,21.52777,3.65424,37.03015-23.61737,34.13336-42.02716C216.52264,242.03754,208.15472,241.152,205.90991,245.78577Z" transform="translate(-79.18185 -83.43888)" style="fill:#fff"/><path d="M263.11505,239.43781c-1.37469-4.25635-6.793-3.89545-8.30182,0-2.28461,5.89856-2.00409,13.41241-2.65967,19.6734-.71069,6.78741-1.93439,13.67944-2.26978,20.47943-.50171,10.17114,15.77985,10.25952,15.875,0,.06268-6.766-.7572-13.70081-1.06982-20.47943C264.39789,252.79944,265.06781,245.4837,263.11505,239.43781Z" transform="translate(-79.18185 -83.43888)" style="fill:#fff"/><path d="M365.74414,241.47705c-9.28876.1355-16.6156,5.62708-20.87842,13.51965-.77515-6.45355-2.0882-13.72449-6.63855-18.39746-1.46954-1.50916-4.74689-.97974-5.10559,1.348-1.00891,6.54712.55225,13.44861.45514,20.08618a120.68462,120.68462,0,0,1-2.19226,21.25037c-1.24976,6.41321,4.74506,10.76331,10.52606,8.092,6.03046-2.78656,9.96179-8.02258,12.77856-13.85529,2.34033-4.84607,4.3349-11.09985,8.20068-13.97571-.24457.18195.70215-.28955,1.29468-.43445a6.6192,6.6192,0,0,1,2.579-.18213,7.92429,7.92429,0,0,1,4.77759,2.76953c3.70819,4.45227,3.50446,9.33289.86761,13.87665-4.82135,8.308,7.33,18.55908,13.75482,10.61291C399.4679,269.7326,388.07843,241.15125,365.74414,241.47705Z" transform="translate(-79.18185 -83.43888)" style="fill:#fff"/><path d="M546.42267,259.01605a26.51907,26.51907,0,0,0,14.25323-10.54285c5.7821-9.05353,2.90033-21.76862-8.50055-24.22888-13.12347-2.832-26.89459,6.504-32.09863,18.15216-5.105,11.42657-4.89008,25.60236,1.18024,36.6582,3.12769,5.69653,8.30792,10.44427,14.67291,12.1521,8.49066,2.27814,16.09961-1.3949,22.65436-6.4917,8.00427-6.224-2.5014-19.89722-10.897-14.12292-.98834.67975-1.99371,1.29077-3.03363,1.889-.28723.16522-.595.30664-.89923.44977-.05786.01941-.1145.03833-.20276.06891q-.96176.33353-1.94641.56842c-.08771-.03857-1.07721.03461-1.69708.025a1.67714,1.67714,0,0,1-.46222-.22388c-.47314-.343-.3631-.09979-.256.07111-.06494-.08893-.16772-.22656-.33734-.4472-1.16382-1.51373.36163.55377-.66083-.51288-.2038-.21265-.9093-.99762-1.20282-1.29907-.24109-.39124-.89288-1.36652-1.03491-1.61334-.20874-.36285-1.022-2.01154-.99561-1.90631-.24713-.65179-1.07776-3.42285-1.389-4.86023a17.62067,17.62067,0,0,1-.269-2.32648A31.004,31.004,0,0,0,546.42267,259.01605ZM539.94641,273.605c1.07013.08881.5791.17743,0,0Zm9.98462-34.67432-.00793-.0108.00732.00775Zm-.00952-.31708c-.00781.147.04443.44275-.02917.12274.01459.06348.02185.11182.03387.17l-.02332-.01947a1.0092,1.0092,0,0,1-.08679-.18433C549.64514,238.22711,549.7663,238.36725,549.92151,238.61359Zm-3.51862.31659a11.02382,11.02382,0,0,1,3.14581-.2735c-.30194-.0047.17072.30011.40662.396.1908,1.0354-.05786,1.20642-.36859,2.02948a11.24029,11.24029,0,0,1-2.37689,3.43365,15.82191,15.82191,0,0,1-4.5813,3.11359c-2.38568,1.09406-5.28589,1.355-8.092,1.74023a16.01782,16.01782,0,0,1,2.52539-4.77905A16.59312,16.59312,0,0,1,546.40289,238.93018Z" transform="translate(-79.18185 -83.43888)" style="fill:#fff"/><path d="M586.39661,274.88068c-.094-.44659-.19055-.89313-.30481-1.32751l-.01831-.07019c-.04376-.38336-.08728-.76672-.11267-1.15271-.14948-2.269-.2052-4.53815-.18665-6.81207.108-13.21088,1.89618-27.02094,3.67621-39.56128,4.39832-30.98682,10.60114-61.64984,16.81616-92.31049,1.55457-7.66913,2.019-15.96674,4.62384-23.38708,1.45-4.13037-4.96436-5.77435-6.49377-1.79028-8.023,20.899-12.75275,43.46362-18.02307,65.15759-4.16278,17.13489-8.14075,34.32715-11.51849,51.6358-2.751,14.09686-5.50354,28.49194-6.07416,42.87573-.20319,5.12073-.25067,10.65613,1.77411,15.44159,2.942,6.95343,9.87347,9.28717,16.61041,6.18439C594.1145,286.56372,591.89081,277.83807,586.39661,274.88068Zm-.24713-.69092c-.00531-.05927-.01312-.11816-.019-.17731C586.1377,274.07214,586.14423,274.13153,586.14948,274.18976Zm-.209-1.2265c-.009-.037-.00775-.03314,0,0Zm.88367,3.83026c.0365.12482.03888.1507,0,0Z" transform="translate(-79.18185 -83.43888)" style="fill:#fff"/><path d="M239.56274,272.88062c-.09393-.44666-.19049-.89307-.30475-1.32745l-.01831-.07019c-.04376-.38336-.08728-.76672-.11273-1.15271-.14941-2.269-.2052-4.53815-.18658-6.81207.108-13.21088,1.89618-27.02094,3.67615-39.56128,4.39832-30.98682,10.60114-61.64984,16.81622-92.31049,1.55457-7.66913,2.01892-15.96674,4.62384-23.38708,1.44989-4.13037-4.96436-5.77435-6.49384-1.79028-8.02295,20.899-12.75269,43.46362-18.02307,65.15759-4.16272,17.13489-8.14069,34.32715-11.51849,51.6358-2.751,14.09686-5.50348,28.49194-6.07416,42.87573-.20312,5.12073-.25067,10.65613,1.77411,15.44159,2.942,6.95343,9.87347,9.28717,16.61041,6.18439C247.28064,284.56366,245.05695,275.838,239.56274,272.88062Zm-.24707-.69086c-.00531-.05927-.01312-.11816-.019-.17731C239.30389,272.07214,239.31042,272.13153,239.31567,272.18976Zm-.209-1.2265c-.009-.037-.00775-.03314,0,0Zm.88361,3.83026c.0365.12482.03888.1507,0,0Z" transform="translate(-79.18185 -83.43888)" style="fill:#fff"/><path d="M630.47137,240.45929c-1.34583-4.45477-1.88934-8.97388-6.107-11.76166a11.88907,11.88907,0,0,0-10.2699-1.28894,21.78559,21.78559,0,0,0-14.28674,16.12054c-1.46484,7.81183,2.6084,14.52106,5.6933,21.34564a17.52423,17.52423,0,0,1,1.25562,3.7099c.25043,1.204.35083.06946.00812,1.22589-.24829.83777-.641,1.39795-2.11792,2.71539-2.45013,2.18549-4.79382,3.4129-6.54132,6.37793-2.86023,4.853.71136,12.66815,6.92126,12.06128,8.66779-.847,16.423-8.96484,17.93085-17.53882,1.24707-7.09094-1.95483-13.28284-5.43-19.21338-2.5022-4.27014-4.873-7.27948-2.5705-11.45465.82928-1.50378,2.38562-3.847,4.13971-4.51971,2.62878-1.00806,4.92859,2.33112,5.93408,4.51422C626.45,245.8338,631.43512,243.64948,630.47137,240.45929Z" transform="translate(-79.18185 -83.43888)" style="fill:#fff"/><path d="M319.19385,263.855c.06873-.26538.14886-.52783.21265-.79437a34.78014,34.78014,0,0,0,1.24835-9.2525c-.12769-2.96735-2.019-5.73523-2.65186-8.02356-2.19922-7.952-12.50055-5.40656-13.40112,1.81372-.09558.7663-.1618,1.52069-.22089,2.27222a17.16809,17.16809,0,0,0-.48889,1.669c-.45587,1.93256-.31177,4.50244-.54266,6.12134a31.0116,31.0116,0,0,1-3.26282,9.86969c-3.03918,5.49359-7.198,8.9917-13.2749,5.75348-5.8941-3.14075-2.79913-10.70667.02069-15.31281a32.23143,32.23143,0,0,1,7.94592-8.79553c1.86114-1.40326,3.97931-2.43756,5.83856-3.84631,1.75238-1.32776,2.97992-3.07648,4.6239-4.46716,1.88953-1.59845.59528-4.31592-1.33069-5.04028-6.70258-2.52087-11.98871-.76947-17.67194,3.40991a42.716,42.716,0,0,0-12.84595,14.81165c-5.51044,10.831-5.42694,24.07636,5.56409,31.40039,10.88849,7.25574,24.26324,4.59448,32.25446-5.44959.27051-.34.52228-.69427.78192-1.0426a75.98542,75.98542,0,0,0,4.7309,6.66833c5.44464,6.89441,15.38068-2.9035,9.73376-9.73376A41.603,41.603,0,0,1,319.19385,263.855Z" transform="translate(-79.18185 -83.43888)" style="fill:#fff"/><path d="M550.08173,197.48737c5.95618-5.46613-2.77161-13.93475-8.79462-8.79468-21.87585,18.66888-40.89392,40.62006-52.73364,66.53156-4.18158-10.7912-8.54242-21.52136-12.0072-32.57135-2.413-7.69556-11.614-8.05554-16.022-2.094-8.51709,11.51862-15.965,23.74927-23.61963,35.84485-2.327-24.01221-6.64886-47.89062-13.87952-70.85089a438.767,438.767,0,0,0-17.53864-46.30206,175.1006,175.1006,0,0,0-11.5697-22.49976c-4.55817-7.21918-8.15906-14.9726-12.95288-22.06024a3.72172,3.72172,0,0,0-6.42206,3.75385c3.66766,7.94543,7.99695,15.55072,10.91711,23.81793,2.6015,7.36487,5.61206,14.59418,8.304,21.93073a382.00091,382.00091,0,0,1,13.60413,45.67627c7.13281,30.90387,12.02454,62.12476,13.09637,93.85547.32471,9.61212,11.80487,11.71436,17.03412,4.61371,10.34625-14.049,18.81525-29.33215,28.14734-44.0531,4.87427,12.99048,10.14423,25.84528,14.54437,39.00635,2.55084,7.62988,14.70276,8.81354,16.68988,0C504.42566,249.8205,525.09613,220.41724,550.08173,197.48737Z" transform="translate(-79.18185 -83.43888)" style="fill:#fff"/><path d="M259.71863,199.37006c-5.35876,0-8.24506,4.91-7.46558,9.80035.64838,4.06818.88721,8.20154,1.938,12.19.94452,3.58478,6.92,4.95966,8.58191,1.12164,1.87012-4.319,2.96454-8.83893,4.41132-13.31165C268.74731,204.3385,264.569,199.37006,259.71863,199.37006Z" transform="translate(-79.18185 -83.43888)" style="fill:#fff"/></svg>