<svg xmlns="http://www.w3.org/2000/svg" viewBox="0 0 324 360">
  <path d="M151,29V169H11V29H151m2-2H9V171H153V27Z" fill="#fff"/>
  <line x1="171" y1="54" x2="297" y2="54" fill="none" stroke="#fff" stroke-miterlimit="10" stroke-width="2"/>
  <line x1="288" y1="306" x2="171" y2="306" fill="none" stroke="#fff" stroke-miterlimit="10" stroke-width="2"/>
  <line x1="288" y1="252" x2="171" y2="252" fill="none" stroke="#fff" stroke-miterlimit="10" stroke-width="2"/>
  <path d="M9,90v81H153V90Zm62.906,19.633,8-8,.719-.687.719.688,8,8a1.016,1.016,0,0,1-1.437,1.438l-6.281-6.281v27.563a1,1,0,1,1-2,0V104.789l-6.281,6.281a1.016,1.016,0,0,1-1.437-1.437Zm26.719,40.719h-36v-34h10a1,1,0,1,1,0,2h-8v30h32v-30h-8a1,1,0,1,1,0-2h10Z" fill="#fff"/>
  <path d="M295,29v99.553A22.473,22.473,0,0,1,272.553,151H173V29H295m2-2H171V153H272.553A24.519,24.519,0,0,0,297,128.553V27Z" fill="#fff"/>
  <path d="M253.551,74A14.466,14.466,0,0,1,268,88.449v30.1A14.466,14.466,0,0,1,253.551,133h-30.1A14.466,14.466,0,0,1,209,118.551v-30.1A14.466,14.466,0,0,1,223.449,74h30.1m0-2h-30.1A16.5,16.5,0,0,0,207,88.449v30.1A16.5,16.5,0,0,0,223.449,135h30.1A16.5,16.5,0,0,0,270,118.551v-30.1A16.5,16.5,0,0,0,253.551,72Z" fill="#fff"/>
  <path d="M253.551,74A14.466,14.466,0,0,1,268,88.449v30.1A14.466,14.466,0,0,1,253.551,133h-30.1A14.466,14.466,0,0,1,209,118.551v-30.1A14.466,14.466,0,0,1,223.449,74h30.1m0-2h-30.1A16.5,16.5,0,0,0,207,88.449v30.1A16.5,16.5,0,0,0,223.449,135h30.1A16.5,16.5,0,0,0,270,118.551v-30.1A16.5,16.5,0,0,0,253.551,72Z" fill="#fff"/>
  <path d="M64.256,228H52.744A13.76,13.76,0,0,0,39,241.744v11.511A13.76,13.76,0,0,0,52.744,267H64.256A13.76,13.76,0,0,0,78,253.256V241.744A13.76,13.76,0,0,0,64.256,228ZM52.831,256h-2V242.755l-4.007,1.472v-1.8l5.693-2.138h.312Zm16.07,0H58.653v-1.429l5.414-6.016a12.885,12.885,0,0,0,1.66-2.218,3.7,3.7,0,0,0,.457-1.767,2.807,2.807,0,0,0-.741-2.009,2.593,2.593,0,0,0-1.977-.784,3.07,3.07,0,0,0-2.3.843,3.222,3.222,0,0,0-.822,2.347H58.353a4.612,4.612,0,0,1,1.391-3.491,5.158,5.158,0,0,1,3.722-1.332,4.956,4.956,0,0,1,3.448,1.144,3.9,3.9,0,0,1,1.268,3.045q0,2.31-2.943,5.5l-4.189,4.544H68.9Z" fill="#fff"/>
  <g>
    <path d="M225.237,122A5.243,5.243,0,0,1,220,116.763V90.237A5.243,5.243,0,0,1,225.237,85h26.525A5.243,5.243,0,0,1,257,90.237v26.525A5.243,5.243,0,0,1,251.763,122Zm10.656-8.857a2.607,2.607,0,1,0,5.214,0v-7.036h7.036a2.607,2.607,0,0,0,0-5.214h-7.036V93.857a2.607,2.607,0,0,0-5.214,0v7.036h-7.036a2.607,2.607,0,1,0,0,5.214h7.036Z" fill="#fff"/>
    <path d="M251.763,86A4.242,4.242,0,0,1,256,90.237v26.525A4.242,4.242,0,0,1,251.763,121H225.237A4.242,4.242,0,0,1,221,116.763V90.237A4.242,4.242,0,0,1,225.237,86h26.525m-16.87,13.893h-6.036a3.607,3.607,0,0,0,0,7.214h6.036v6.036a3.607,3.607,0,1,0,7.214,0v-6.036h6.036a3.607,3.607,0,0,0,0-7.214h-6.036V93.857a3.607,3.607,0,1,0-7.214,0v6.036M251.763,84H225.237A6.256,6.256,0,0,0,219,90.237v26.525A6.256,6.256,0,0,0,225.237,123h26.525A6.256,6.256,0,0,0,258,116.763V90.237A6.256,6.256,0,0,0,251.763,84Zm-22.906,21.107a1.607,1.607,0,0,1,0-3.214h8.036V93.857a1.607,1.607,0,1,1,3.214,0v8.036h8.036a1.607,1.607,0,0,1,0,3.214h-8.036v8.036a1.607,1.607,0,1,1-3.214,0v-8.036Z" fill="#fff"/>
  </g>
  <path d="M173,74.007a14.467,14.467,0,0,1,14,14.442v30.1a14.467,14.467,0,0,1-14,14.442V74.007M172.551,72H171v63h1.551A16.5,16.5,0,0,0,189,118.551v-30.1A16.5,16.5,0,0,0,172.551,72Z" fill="#fff"/>
  <path d="M295,77.551v51q0,.442-.019.889A14.44,14.44,0,0,1,290,118.551v-30.1a14.357,14.357,0,0,1,5-10.9m2-3.739a16.484,16.484,0,0,0-9,14.638v30.1a16.49,16.49,0,0,0,8.587,14.433,24.315,24.315,0,0,0,.413-4.431V73.812Z" fill="#fff"/>
  <path d="M151,209V349H11V209H151m2-2H9V351H153V207Z" fill="#fff"/>
  <path d="M313,209V349H173V209H313m2-2H171V351H315V207Z" fill="#fff"/>
  <path d="M9,207v81H153V207Zm72,46.551A16.5,16.5,0,0,1,64.551,270h-12.1A16.5,16.5,0,0,1,36,253.551v-12.1A16.5,16.5,0,0,1,52.449,225h12.1A16.5,16.5,0,0,1,81,241.449Zm40.739,6.259a2.7,2.7,0,1,1,.461-1.51A2.71,2.71,0,0,1,121.739,259.81Zm0-10.8a2.7,2.7,0,1,1,.461-1.51A2.71,2.71,0,0,1,121.739,249.01Zm0-10.8a2.7,2.7,0,1,1,.461-1.51A2.71,2.71,0,0,1,121.739,238.21Z" fill="#fff"/>
  <g>
    <path d="M174.278,284.454a.9.9,0,0,1,.221-.62.841.841,0,0,1,.662-.248.867.867,0,0,1,.67.248.881.881,0,0,1,.229.62.833.833,0,0,1-.229.6.885.885,0,0,1-.67.239.8.8,0,0,1-.883-.836Z" fill="#fff"/>
    <path d="M178.453,284.454a.9.9,0,0,1,.221-.62.841.841,0,0,1,.662-.248.867.867,0,0,1,.67.248.881.881,0,0,1,.229.62.833.833,0,0,1-.229.6.885.885,0,0,1-.67.239.8.8,0,0,1-.883-.836Z" fill="#fff"/>
    <path d="M182.626,284.454a.9.9,0,0,1,.221-.62.841.841,0,0,1,.662-.248.867.867,0,0,1,.67.248.881.881,0,0,1,.229.62.833.833,0,0,1-.229.6.885.885,0,0,1-.67.239.8.8,0,0,1-.883-.836Z" fill="#fff"/>
    <path d="M192.129,277.84a3.046,3.046,0,0,1,2.478-1.169q2.656,0,2.679,3v5.537h-1.433V279.66a1.929,1.929,0,0,0-.414-1.34,1.661,1.661,0,0,0-1.266-.434,2.072,2.072,0,0,0-1.224.371,2.527,2.527,0,0,0-.821.977v5.971H190.7V273.311h1.433Z" fill="#fff"/>
    <path d="M199.052,280.938a4.952,4.952,0,0,1,.484-2.215,3.61,3.61,0,0,1,1.347-1.518,3.675,3.675,0,0,1,1.971-.534,3.537,3.537,0,0,1,2.769,1.185,4.56,4.56,0,0,1,1.057,3.152v.1a4.989,4.989,0,0,1-.469,2.2,3.561,3.561,0,0,1-1.34,1.515,3.71,3.71,0,0,1-2,.542,3.527,3.527,0,0,1-2.761-1.185,4.539,4.539,0,0,1-1.057-3.137Zm1.44.171a3.588,3.588,0,0,0,.647,2.238,2.192,2.192,0,0,0,3.465-.012,3.92,3.92,0,0,0,.643-2.4,3.581,3.581,0,0,0-.654-2.234,2.08,2.08,0,0,0-1.738-.855,2.055,2.055,0,0,0-1.711.845A3.888,3.888,0,0,0,200.492,281.108Z" fill="#fff"/>
    <path d="M209.824,276.826l.039.929a3.1,3.1,0,0,1,2.486-1.084,2.4,2.4,0,0,1,2.393,1.348,3.169,3.169,0,0,1,1.088-.976,3.209,3.209,0,0,1,1.583-.372q2.757,0,2.8,2.919v5.615h-1.433v-5.529a1.924,1.924,0,0,0-.41-1.344,1.808,1.808,0,0,0-1.378-.445,1.894,1.894,0,0,0-1.324.477,1.928,1.928,0,0,0-.612,1.281v5.561h-1.44v-5.49a1.6,1.6,0,0,0-1.789-1.828,1.917,1.917,0,0,0-1.928,1.2v6.118h-1.433v-8.379Z" fill="#fff"/>
    <path d="M225.855,285.36a3.661,3.661,0,0,1-2.772-1.12,4.151,4.151,0,0,1-1.069-2.992v-.264a5.032,5.032,0,0,1,.476-2.227,3.723,3.723,0,0,1,1.332-1.533,3.35,3.35,0,0,1,1.855-.554,3.135,3.135,0,0,1,2.54,1.077,4.658,4.658,0,0,1,.906,3.082v.6h-5.677a2.977,2.977,0,0,0,.724,2,2.275,2.275,0,0,0,1.762.763,2.491,2.491,0,0,0,1.286-.31,3.247,3.247,0,0,0,.921-.82l.875.681A3.519,3.519,0,0,1,225.855,285.36Zm-.178-7.513a1.914,1.914,0,0,0-1.456.631,3.075,3.075,0,0,0-.728,1.77h4.2v-.107a2.73,2.73,0,0,0-.589-1.692A1.8,1.8,0,0,0,225.677,277.848Z" fill="#fff"/>
    <path d="M239.585,282.982a1.057,1.057,0,0,0-.437-.9,4.225,4.225,0,0,0-1.525-.554,7.228,7.228,0,0,1-1.727-.558,2.456,2.456,0,0,1-.945-.774,1.851,1.851,0,0,1-.306-1.068,2.175,2.175,0,0,1,.871-1.743,3.4,3.4,0,0,1,2.227-.712,3.5,3.5,0,0,1,2.312.735,2.338,2.338,0,0,1,.887,1.883H239.5a1.3,1.3,0,0,0-.5-1.016,1.875,1.875,0,0,0-1.258-.426,1.956,1.956,0,0,0-1.224.342,1.071,1.071,0,0,0-.441.891.868.868,0,0,0,.41.781,5.046,5.046,0,0,0,1.483.5,7.8,7.8,0,0,1,1.738.572,2.544,2.544,0,0,1,.987.8,1.966,1.966,0,0,1,.321,1.142,2.142,2.142,0,0,1-.9,1.8,3.76,3.76,0,0,1-2.331.679,4.221,4.221,0,0,1-1.781-.356,2.9,2.9,0,0,1-1.212-1,2.4,2.4,0,0,1-.437-1.382h1.433a1.483,1.483,0,0,0,.577,1.142,2.239,2.239,0,0,0,1.421.422,2.307,2.307,0,0,0,1.3-.329A1.009,1.009,0,0,0,239.585,282.982Z" fill="#fff"/>
    <path d="M246.246,284.19a2.07,2.07,0,0,0,1.34-.464,1.638,1.638,0,0,0,.635-1.162h1.355a2.6,2.6,0,0,1-.5,1.371,3.263,3.263,0,0,1-1.22,1.037,3.525,3.525,0,0,1-1.615.388,3.451,3.451,0,0,1-2.722-1.143,4.551,4.551,0,0,1-1.011-3.125v-.239a5.046,5.046,0,0,1,.449-2.177,3.418,3.418,0,0,1,1.29-1.479,3.666,3.666,0,0,1,1.986-.526,3.359,3.359,0,0,1,2.343.845,3.017,3.017,0,0,1,1,2.191H248.22a1.972,1.972,0,0,0-.616-1.336,1.915,1.915,0,0,0-1.367-.523,2.006,2.006,0,0,0-1.692.787,3.69,3.69,0,0,0-.6,2.272v.271a3.615,3.615,0,0,0,.6,2.23A2.014,2.014,0,0,0,246.246,284.19Z" fill="#fff"/>
    <path d="M255.236,278.111a4.29,4.29,0,0,0-.7-.055,1.887,1.887,0,0,0-1.913,1.2v5.947h-1.433v-8.379h1.394l.023.968a2.23,2.23,0,0,1,2-1.123,1.462,1.462,0,0,1,.635.108Z" fill="#fff"/>
    <path d="M259.883,285.36a3.661,3.661,0,0,1-2.772-1.12,4.151,4.151,0,0,1-1.069-2.992v-.264a5.032,5.032,0,0,1,.476-2.227,3.723,3.723,0,0,1,1.332-1.533,3.35,3.35,0,0,1,1.855-.554,3.135,3.135,0,0,1,2.54,1.077,4.658,4.658,0,0,1,.906,3.082v.6h-5.677a2.977,2.977,0,0,0,.724,2,2.275,2.275,0,0,0,1.762.763,2.491,2.491,0,0,0,1.286-.31,3.247,3.247,0,0,0,.921-.82l.875.681A3.519,3.519,0,0,1,259.883,285.36Zm-.178-7.513a1.914,1.914,0,0,0-1.456.631,3.075,3.075,0,0,0-.728,1.77h4.2v-.107a2.73,2.73,0,0,0-.589-1.692A1.8,1.8,0,0,0,259.705,277.848Z" fill="#fff"/>
    <path d="M268.286,285.36a3.661,3.661,0,0,1-2.772-1.12,4.151,4.151,0,0,1-1.069-2.992v-.264a5.032,5.032,0,0,1,.476-2.227,3.723,3.723,0,0,1,1.332-1.533,3.35,3.35,0,0,1,1.855-.554,3.135,3.135,0,0,1,2.54,1.077,4.658,4.658,0,0,1,.906,3.082v.6h-5.677a2.977,2.977,0,0,0,.724,2,2.275,2.275,0,0,0,1.762.763,2.491,2.491,0,0,0,1.286-.31,3.247,3.247,0,0,0,.921-.82l.875.681A3.519,3.519,0,0,1,268.286,285.36Zm-.178-7.513a1.914,1.914,0,0,0-1.456.631,3.075,3.075,0,0,0-.728,1.77h4.2v-.107a2.73,2.73,0,0,0-.589-1.692A1.8,1.8,0,0,0,268.107,277.848Z" fill="#fff"/>
    <path d="M274.566,276.826l.046,1.053a3.055,3.055,0,0,1,2.509-1.208q2.656,0,2.679,3v5.537h-1.433V279.66a1.929,1.929,0,0,0-.414-1.34,1.661,1.661,0,0,0-1.266-.434,2.072,2.072,0,0,0-1.224.371,2.527,2.527,0,0,0-.821.977v5.971H273.21v-8.379Z" fill="#fff"/>
  </g>
  <g>
    <path d="M215.288,145.921h-.942v-3.286h-3.584v3.286h-.937v-7.109h.938v3.057h3.584v-3.057h.942Z" fill="#fff"/>
    <path d="M216.572,143.231a3.119,3.119,0,0,1,.305-1.4,2.278,2.278,0,0,1,.85-.957,2.313,2.313,0,0,1,1.243-.337,2.228,2.228,0,0,1,1.746.747,2.874,2.874,0,0,1,.667,1.987v.063a3.151,3.151,0,0,1-.3,1.384,2.242,2.242,0,0,1-.845.955,2.338,2.338,0,0,1-1.262.342,2.222,2.222,0,0,1-1.741-.747,2.86,2.86,0,0,1-.667-1.978Zm.908.107a2.26,2.26,0,0,0,.408,1.411,1.382,1.382,0,0,0,2.185-.007,2.473,2.473,0,0,0,.405-1.511,2.257,2.257,0,0,0-.413-1.409,1.311,1.311,0,0,0-1.1-.54,1.3,1.3,0,0,0-1.079.532A2.454,2.454,0,0,0,217.48,143.338Z" fill="#fff"/>
    <path d="M223.364,140.638l.024.586a1.951,1.951,0,0,1,1.567-.684,1.511,1.511,0,0,1,1.509.85,2,2,0,0,1,.686-.615,2.026,2.026,0,0,1,1-.234q1.738,0,1.768,1.841v3.54h-.9v-3.486a1.214,1.214,0,0,0-.259-.847,1.14,1.14,0,0,0-.869-.281,1.2,1.2,0,0,0-.835.3,1.219,1.219,0,0,0-.386.808v3.506h-.908v-3.462a1.008,1.008,0,0,0-1.128-1.152,1.209,1.209,0,0,0-1.216.757v3.857h-.9v-5.283Z" fill="#fff"/>
    <path d="M233.472,146.019a2.309,2.309,0,0,1-1.748-.706,2.619,2.619,0,0,1-.674-1.887v-.166a3.17,3.17,0,0,1,.3-1.4,2.343,2.343,0,0,1,.84-.967,2.111,2.111,0,0,1,1.169-.349,1.978,1.978,0,0,1,1.6.679,2.939,2.939,0,0,1,.571,1.943v.376h-3.579a1.878,1.878,0,0,0,.457,1.262,1.435,1.435,0,0,0,1.111.481,1.572,1.572,0,0,0,.811-.2,2.041,2.041,0,0,0,.581-.518l.552.43A2.219,2.219,0,0,1,233.472,146.019Zm-.112-4.736a1.205,1.205,0,0,0-.918.4,1.933,1.933,0,0,0-.459,1.116h2.646v-.068a1.721,1.721,0,0,0-.371-1.067A1.134,1.134,0,0,0,233.359,141.283Z" fill="#fff"/>
    <path d="M242.129,144.52a.665.665,0,0,0-.276-.569,2.652,2.652,0,0,0-.962-.349,4.545,4.545,0,0,1-1.089-.352,1.546,1.546,0,0,1-.6-.488,1.17,1.17,0,0,1-.193-.674,1.37,1.37,0,0,1,.549-1.1,2.146,2.146,0,0,1,1.4-.449,2.208,2.208,0,0,1,1.458.464,1.473,1.473,0,0,1,.559,1.187h-.908a.815.815,0,0,0-.315-.64,1.18,1.18,0,0,0-.793-.269,1.236,1.236,0,0,0-.771.215.676.676,0,0,0-.278.562.548.548,0,0,0,.259.493,3.184,3.184,0,0,0,.935.317,4.872,4.872,0,0,1,1.1.361,1.6,1.6,0,0,1,.623.505,1.241,1.241,0,0,1,.2.72,1.352,1.352,0,0,1-.566,1.135,2.377,2.377,0,0,1-1.47.427,2.658,2.658,0,0,1-1.123-.225,1.828,1.828,0,0,1-.764-.627,1.511,1.511,0,0,1-.276-.872h.9a.935.935,0,0,0,.364.72,1.412,1.412,0,0,0,.9.266,1.458,1.458,0,0,0,.823-.208A.638.638,0,0,0,242.129,144.52Z" fill="#fff"/>
    <path d="M246.328,145.282a1.3,1.3,0,0,0,.845-.293,1.031,1.031,0,0,0,.4-.732h.854a1.638,1.638,0,0,1-.312.864,2.054,2.054,0,0,1-.769.654,2.222,2.222,0,0,1-1.018.244,2.177,2.177,0,0,1-1.716-.72,2.868,2.868,0,0,1-.637-1.97v-.151a3.179,3.179,0,0,1,.283-1.372,2.158,2.158,0,0,1,.813-.933,2.31,2.31,0,0,1,1.252-.332,2.118,2.118,0,0,1,1.477.532,1.9,1.9,0,0,1,.627,1.382h-.854a1.243,1.243,0,0,0-.388-.842,1.208,1.208,0,0,0-.862-.33,1.264,1.264,0,0,0-1.067.5,2.327,2.327,0,0,0-.378,1.433v.171a2.282,2.282,0,0,0,.376,1.406A1.271,1.271,0,0,0,246.328,145.282Z" fill="#fff"/>
    <path d="M252,141.449a2.688,2.688,0,0,0-.444-.034,1.191,1.191,0,0,0-1.206.757v3.75h-.9v-5.283h.879l.015.61a1.407,1.407,0,0,1,1.26-.708.926.926,0,0,1,.4.068Z" fill="#fff"/>
    <path d="M254.927,146.019a2.309,2.309,0,0,1-1.748-.706,2.619,2.619,0,0,1-.674-1.887v-.166a3.17,3.17,0,0,1,.3-1.4,2.343,2.343,0,0,1,.84-.967,2.111,2.111,0,0,1,1.169-.349,1.978,1.978,0,0,1,1.6.679,2.939,2.939,0,0,1,.571,1.943v.376h-3.579a1.878,1.878,0,0,0,.457,1.262,1.435,1.435,0,0,0,1.111.481,1.572,1.572,0,0,0,.811-.2,2.041,2.041,0,0,0,.581-.518l.552.43A2.219,2.219,0,0,1,254.927,146.019Zm-.112-4.736a1.205,1.205,0,0,0-.918.4,1.933,1.933,0,0,0-.459,1.116h2.646v-.068a1.721,1.721,0,0,0-.371-1.067A1.134,1.134,0,0,0,254.814,141.283Z" fill="#fff"/>
    <path d="M260.225,146.019a2.309,2.309,0,0,1-1.748-.706,2.619,2.619,0,0,1-.674-1.887v-.166a3.17,3.17,0,0,1,.3-1.4,2.343,2.343,0,0,1,.84-.967,2.111,2.111,0,0,1,1.169-.349,1.978,1.978,0,0,1,1.6.679,2.939,2.939,0,0,1,.571,1.943v.376h-3.579a1.878,1.878,0,0,0,.457,1.262,1.435,1.435,0,0,0,1.111.481,1.572,1.572,0,0,0,.811-.2,2.041,2.041,0,0,0,.581-.518l.552.43A2.219,2.219,0,0,1,260.225,146.019Zm-.112-4.736a1.205,1.205,0,0,0-.918.4,1.933,1.933,0,0,0-.459,1.116h2.646v-.068a1.721,1.721,0,0,0-.371-1.067A1.134,1.134,0,0,0,260.112,141.283Z" fill="#fff"/>
    <path d="M264.185,140.638l.029.664a1.926,1.926,0,0,1,1.582-.762q1.675,0,1.689,1.89v3.491h-.9v-3.5a1.217,1.217,0,0,0-.261-.845,1.047,1.047,0,0,0-.8-.273,1.3,1.3,0,0,0-.771.234,1.592,1.592,0,0,0-.518.615v3.765h-.9v-5.283Z" fill="#fff"/>
  </g>
  <g>
    <path d="M172,170V154H272.553A25.476,25.476,0,0,0,298,128.553V28h16V170Z" fill="#fff"/>
    <path d="M313,29V169H173V155h99.553A26.477,26.477,0,0,0,299,128.553V29h14m2-2H297V128.553A24.519,24.519,0,0,1,272.553,153H171v18H315V27Z" fill="#fff"/>
  </g>
  <rect x="288" y="207" width="9" height="144" fill="#fff"/>
  <g>
    <path d="M16.038,193.872H11.582l-1,2.783H9.134L13.2,186.019h1.228l4.069,10.637H17.053Zm-4.032-1.147h3.616L13.81,187.75Z" fill="#fff"/>
    <path d="M20.991,188.751l.044.994A2.879,2.879,0,0,1,23.4,188.6q2.506,0,2.528,2.827v5.223H24.578v-5.23a1.82,1.82,0,0,0-.391-1.264,1.567,1.567,0,0,0-1.194-.409,1.949,1.949,0,0,0-1.154.351,2.383,2.383,0,0,0-.774.92v5.632H19.712v-7.9Z" fill="#fff"/>
    <path d="M27.638,192.637a4.631,4.631,0,0,1,.862-2.926,2.933,2.933,0,0,1,4.456-.157v-4.12h1.352v11.221H33.066L33,195.808a2.751,2.751,0,0,1-2.257.994,2.7,2.7,0,0,1-2.239-1.125,4.682,4.682,0,0,1-.866-2.937Zm1.352.154a3.5,3.5,0,0,0,.555,2.1,1.794,1.794,0,0,0,1.534.76,1.971,1.971,0,0,0,1.877-1.154v-3.63a1.987,1.987,0,0,0-1.863-1.118,1.8,1.8,0,0,0-1.549.767A3.86,3.86,0,0,0,28.99,192.791Z" fill="#fff"/>
    <path d="M40.226,189.964a4.04,4.04,0,0,0-.665-.051,1.781,1.781,0,0,0-1.8,1.132v5.61H36.405v-7.9H37.72l.021.913a2.105,2.105,0,0,1,1.885-1.059,1.385,1.385,0,0,1,.6.1Z" fill="#fff"/>
    <path d="M40.963,192.63a4.665,4.665,0,0,1,.457-2.089,3.406,3.406,0,0,1,1.271-1.432,3.46,3.46,0,0,1,1.859-.5,3.333,3.333,0,0,1,2.612,1.118,4.3,4.3,0,0,1,1,2.973v.1a4.711,4.711,0,0,1-.442,2.071,3.353,3.353,0,0,1-1.264,1.428,3.5,3.5,0,0,1-1.889.511,3.324,3.324,0,0,1-2.6-1.118,4.277,4.277,0,0,1-1-2.958Zm1.359.161a3.38,3.38,0,0,0,.61,2.111,2.067,2.067,0,0,0,3.269-.011,3.7,3.7,0,0,0,.606-2.261,3.375,3.375,0,0,0-.617-2.107,1.962,1.962,0,0,0-1.64-.807,1.941,1.941,0,0,0-1.614.8A3.669,3.669,0,0,0,42.322,192.791Z" fill="#fff"/>
    <path d="M49.861,186.654a.807.807,0,0,1,.2-.555.755.755,0,0,1,.6-.227.766.766,0,0,1,.6.227.8.8,0,0,1,.2.555.772.772,0,0,1-.2.548.78.78,0,0,1-.6.219.768.768,0,0,1-.6-.219A.78.78,0,0,1,49.861,186.654Zm1.461,10H49.971v-7.9h1.352Z" fill="#fff"/>
    <path d="M53.156,192.637a4.631,4.631,0,0,1,.862-2.926,2.933,2.933,0,0,1,4.456-.157v-4.12h1.352v11.221H58.584l-.066-.848a2.751,2.751,0,0,1-2.257.994,2.7,2.7,0,0,1-2.239-1.125,4.682,4.682,0,0,1-.866-2.937Zm1.352.154a3.5,3.5,0,0,0,.555,2.1,1.794,1.794,0,0,0,1.534.76,1.971,1.971,0,0,0,1.877-1.154v-3.63a1.987,1.987,0,0,0-1.863-1.118,1.8,1.8,0,0,0-1.549.767A3.86,3.86,0,0,0,54.507,192.791Z" fill="#fff"/>
    <path d="M73.662,193.28a3.914,3.914,0,0,1-1.246,2.6,4.084,4.084,0,0,1-2.787.917,3.747,3.747,0,0,1-3.021-1.352,5.436,5.436,0,0,1-1.136-3.616v-1.023A6.06,6.06,0,0,1,66,188.2a3.952,3.952,0,0,1,1.5-1.728,4.178,4.178,0,0,1,2.25-.6,3.842,3.842,0,0,1,2.717.946,3.96,3.96,0,0,1,1.191,2.619h-1.41a3.054,3.054,0,0,0-.792-1.846,2.4,2.4,0,0,0-1.706-.572,2.509,2.509,0,0,0-2.108.995,4.564,4.564,0,0,0-.763,2.829v1.031a4.693,4.693,0,0,0,.723,2.756,2.337,2.337,0,0,0,2.023,1.023,2.7,2.7,0,0,0,1.793-.529,2.939,2.939,0,0,0,.829-1.845Z" fill="#fff"/>
    <path d="M76.715,189.708a2.874,2.874,0,0,1,2.338-1.1q2.506,0,2.528,2.827v5.223H80.229v-5.23a1.82,1.82,0,0,0-.391-1.264,1.567,1.567,0,0,0-1.194-.409,1.949,1.949,0,0,0-1.154.351,2.383,2.383,0,0,0-.774.92v5.632H75.364V185.435h1.351Z" fill="#fff"/>
    <path d="M87.425,189.964a4.04,4.04,0,0,0-.665-.051,1.781,1.781,0,0,0-1.8,1.132v5.61H83.6v-7.9h1.315l.021.913a2.105,2.105,0,0,1,1.885-1.059,1.385,1.385,0,0,1,.6.1Z" fill="#fff"/>
    <path d="M88.163,192.63a4.665,4.665,0,0,1,.457-2.089,3.406,3.406,0,0,1,1.271-1.432,3.46,3.46,0,0,1,1.859-.5,3.333,3.333,0,0,1,2.612,1.118,4.3,4.3,0,0,1,1,2.973v.1a4.711,4.711,0,0,1-.442,2.071,3.353,3.353,0,0,1-1.264,1.428,3.5,3.5,0,0,1-1.889.511,3.324,3.324,0,0,1-2.6-1.118,4.277,4.277,0,0,1-1-2.958Zm1.359.161a3.38,3.38,0,0,0,.61,2.111,2.067,2.067,0,0,0,3.269-.011,3.7,3.7,0,0,0,.606-2.261,3.375,3.375,0,0,0-.617-2.107,1.962,1.962,0,0,0-1.64-.807,1.941,1.941,0,0,0-1.614.8A3.669,3.669,0,0,0,89.521,192.791Z" fill="#fff"/>
    <path d="M98.325,188.751l.037.876a2.918,2.918,0,0,1,2.345-1.022,2.259,2.259,0,0,1,2.257,1.271,3,3,0,0,1,1.026-.92,3.031,3.031,0,0,1,1.494-.351q2.6,0,2.645,2.754v5.3h-1.352v-5.216a1.815,1.815,0,0,0-.387-1.268,1.7,1.7,0,0,0-1.3-.42,1.79,1.79,0,0,0-1.249.449,1.819,1.819,0,0,0-.577,1.209v5.245H101.9v-5.18a1.508,1.508,0,0,0-1.687-1.724,1.809,1.809,0,0,0-1.819,1.132v5.771H97.046v-7.9Z" fill="#fff"/>
    <path d="M113.446,196.8a3.452,3.452,0,0,1-2.615-1.056,3.918,3.918,0,0,1-1.008-2.823v-.249a4.739,4.739,0,0,1,.45-2.1,3.506,3.506,0,0,1,1.256-1.447,3.158,3.158,0,0,1,1.75-.522,2.961,2.961,0,0,1,2.4,1.015,4.4,4.4,0,0,1,.855,2.908v.563h-5.355a2.808,2.808,0,0,0,.683,1.888,2.146,2.146,0,0,0,1.662.72,2.353,2.353,0,0,0,1.212-.292,3.048,3.048,0,0,0,.87-.774l.825.643A3.318,3.318,0,0,1,113.446,196.8Zm-.168-7.086a1.8,1.8,0,0,0-1.374.6,2.9,2.9,0,0,0-.687,1.669h3.959v-.1a2.576,2.576,0,0,0-.555-1.6A1.7,1.7,0,0,0,113.278,189.715Z" fill="#fff"/>
  </g>
  <g>
    <path d="M9.96,7.654a.807.807,0,0,1,.2-.555.755.755,0,0,1,.6-.227.766.766,0,0,1,.6.227.8.8,0,0,1,.2.555.772.772,0,0,1-.2.548.78.78,0,0,1-.6.219.768.768,0,0,1-.6-.219A.78.78,0,0,1,9.96,7.654Zm1.461,10H10.069v-7.9h1.352Z" fill="#fff"/>
    <path d="M15.2,13.491v4.164h-1.4V7.019h3.923a3.942,3.942,0,0,1,2.736.892,3.022,3.022,0,0,1,.99,2.359,2.981,2.981,0,0,1-.968,2.385,4.116,4.116,0,0,1-2.772.836Zm0-1.147h2.521a2.52,2.52,0,0,0,1.724-.53,1.94,1.94,0,0,0,.6-1.533,2.005,2.005,0,0,0-.6-1.522A2.361,2.361,0,0,0,17.8,8.166H15.2Z" fill="#fff"/>
    <path d="M24.373,10.708a2.874,2.874,0,0,1,2.338-1.1q2.506,0,2.528,2.827v5.223H27.887v-5.23a1.82,1.82,0,0,0-.391-1.264,1.567,1.567,0,0,0-1.194-.409,1.949,1.949,0,0,0-1.154.351,2.383,2.383,0,0,0-.774.92v5.632H23.022V6.435h1.351Z" fill="#fff"/>
    <path d="M30.9,13.63a4.665,4.665,0,0,1,.457-2.089,3.406,3.406,0,0,1,1.271-1.432,3.46,3.46,0,0,1,1.859-.5A3.333,3.333,0,0,1,37.1,10.723a4.3,4.3,0,0,1,1,2.973v.1a4.711,4.711,0,0,1-.442,2.071,3.353,3.353,0,0,1-1.264,1.428,3.5,3.5,0,0,1-1.889.511,3.324,3.324,0,0,1-2.6-1.118,4.277,4.277,0,0,1-1-2.958Zm1.359.161a3.38,3.38,0,0,0,.61,2.111,2.067,2.067,0,0,0,3.269-.011,3.7,3.7,0,0,0,.606-2.261,3.375,3.375,0,0,0-.617-2.107,1.962,1.962,0,0,0-1.64-.807,1.941,1.941,0,0,0-1.614.8A3.669,3.669,0,0,0,32.263,13.791Z" fill="#fff"/>
    <path d="M41.073,9.751l.044.994A2.879,2.879,0,0,1,43.484,9.6q2.506,0,2.528,2.827v5.223H44.66v-5.23a1.82,1.82,0,0,0-.391-1.264,1.567,1.567,0,0,0-1.194-.409,1.949,1.949,0,0,0-1.154.351,2.383,2.383,0,0,0-.774.92v5.632H39.795v-7.9Z" fill="#fff"/>
    <path d="M51.33,17.8a3.452,3.452,0,0,1-2.615-1.056,3.918,3.918,0,0,1-1.008-2.823v-.249a4.739,4.739,0,0,1,.45-2.1,3.506,3.506,0,0,1,1.256-1.447,3.158,3.158,0,0,1,1.75-.522,2.961,2.961,0,0,1,2.4,1.015,4.4,4.4,0,0,1,.855,2.908v.563H49.058a2.808,2.808,0,0,0,.683,1.888,2.146,2.146,0,0,0,1.662.72,2.353,2.353,0,0,0,1.212-.292,3.048,3.048,0,0,0,.87-.774l.825.643A3.318,3.318,0,0,1,51.33,17.8Zm-.168-7.086a1.8,1.8,0,0,0-1.374.6A2.9,2.9,0,0,0,49.1,12.98h3.959v-.1a2.576,2.576,0,0,0-.555-1.6A1.7,1.7,0,0,0,51.162,10.715Z" fill="#fff"/>
    <path d="M63.025,12.914A6.589,6.589,0,0,1,60.4,11.639a2.435,2.435,0,0,1-.822-1.866,2.574,2.574,0,0,1,1-2.079,3.994,3.994,0,0,1,2.612-.822,4.361,4.361,0,0,1,1.954.424,3.212,3.212,0,0,1,1.33,1.169,2.989,2.989,0,0,1,.471,1.629h-1.41a1.944,1.944,0,0,0-.613-1.521,2.5,2.5,0,0,0-1.731-.554,2.554,2.554,0,0,0-1.618.458,1.526,1.526,0,0,0-.581,1.27,1.372,1.372,0,0,0,.551,1.1,5.4,5.4,0,0,0,1.877.823,8.7,8.7,0,0,1,2.075.823,3.144,3.144,0,0,1,1.11,1.048,2.674,2.674,0,0,1,.362,1.41,2.485,2.485,0,0,1-1.008,2.071,4.3,4.3,0,0,1-2.7.778,5,5,0,0,1-2.046-.42,3.442,3.442,0,0,1-1.464-1.15,2.807,2.807,0,0,1-.515-1.659h1.41a1.833,1.833,0,0,0,.712,1.523,3,3,0,0,0,1.9.559,2.756,2.756,0,0,0,1.7-.453,1.472,1.472,0,0,0,.592-1.235,1.445,1.445,0,0,0-.548-1.209A6.325,6.325,0,0,0,63.025,12.914Z" fill="#fff"/>
    <path d="M73.436,17.655a2.821,2.821,0,0,1-.19-.833A3.015,3.015,0,0,1,71,17.8a2.791,2.791,0,0,1-1.918-.661,2.139,2.139,0,0,1-.749-1.676,2.236,2.236,0,0,1,.938-1.918,4.429,4.429,0,0,1,2.641-.683h1.315v-.621a1.519,1.519,0,0,0-.424-1.129,1.7,1.7,0,0,0-1.249-.42,1.97,1.97,0,0,0-1.213.365,1.076,1.076,0,0,0-.489.884H68.49a1.866,1.866,0,0,1,.42-1.143,2.871,2.871,0,0,1,1.14-.873A3.832,3.832,0,0,1,71.631,9.6a3.124,3.124,0,0,1,2.141.683,2.463,2.463,0,0,1,.8,1.881v3.638a4.45,4.45,0,0,0,.277,1.731v.117Zm-2.243-1.03A2.374,2.374,0,0,0,72.4,16.3a1.989,1.989,0,0,0,.826-.854V13.82h-1.06q-2.484,0-2.483,1.454a1.23,1.23,0,0,0,.423.993A1.629,1.629,0,0,0,71.193,16.625Z" fill="#fff"/>
    <path d="M77.358,17.655V10.8H76.109V9.751h1.249V8.94a2.692,2.692,0,0,1,.679-1.965,2.566,2.566,0,0,1,1.921-.694,3.578,3.578,0,0,1,.928.124l-.073,1.089a3.874,3.874,0,0,0-.73-.066,1.32,1.32,0,0,0-1.016.385,1.561,1.561,0,0,0-.358,1.1v.835H80.4V10.8H78.71v6.86Z" fill="#fff"/>
    <path d="M86.768,17.655a2.821,2.821,0,0,1-.19-.833,3.015,3.015,0,0,1-2.25.979,2.791,2.791,0,0,1-1.918-.661,2.139,2.139,0,0,1-.749-1.676,2.236,2.236,0,0,1,.938-1.918,4.429,4.429,0,0,1,2.641-.683h1.315v-.621a1.519,1.519,0,0,0-.424-1.129,1.7,1.7,0,0,0-1.249-.42,1.97,1.97,0,0,0-1.213.365,1.076,1.076,0,0,0-.489.884H81.822a1.866,1.866,0,0,1,.42-1.143,2.871,2.871,0,0,1,1.14-.873A3.832,3.832,0,0,1,84.963,9.6a3.124,3.124,0,0,1,2.141.683,2.463,2.463,0,0,1,.8,1.881v3.638a4.45,4.45,0,0,0,.277,1.731v.117Zm-2.243-1.03A2.374,2.374,0,0,0,85.73,16.3a1.989,1.989,0,0,0,.826-.854V13.82H85.5q-2.484,0-2.483,1.454a1.23,1.23,0,0,0,.423.993A1.629,1.629,0,0,0,84.525,16.625Z" fill="#fff"/>
    <path d="M93.846,10.964a4.04,4.04,0,0,0-.665-.051,1.781,1.781,0,0,0-1.8,1.132v5.61H90.026v-7.9h1.315l.021.913A2.105,2.105,0,0,1,93.247,9.6a1.385,1.385,0,0,1,.6.1Z" fill="#fff"/>
    <path d="M95.1,7.654a.807.807,0,0,1,.2-.555.755.755,0,0,1,.6-.227.766.766,0,0,1,.6.227.8.8,0,0,1,.2.555.772.772,0,0,1-.2.548.78.78,0,0,1-.6.219.768.768,0,0,1-.6-.219A.78.78,0,0,1,95.1,7.654Zm1.461,10H95.205v-7.9h1.352Z" fill="#fff"/>
  </g>
  <rect x="171" y="216" width="72" height="18" fill="#fff"/>
  <rect x="171" y="324" width="99" height="18" fill="#fff"/>
</svg>
